# xmcd
#
# Track frame offsets:
#	150
#	22594
#	38977
#	50604
#	65192
#	84033
#	100176
#	114380
#	132569
#	147382
#	158099
#	171260
#	188910
#	203649
#
# Disc length: 2976
#
# Revision: 1
# Processed by: cddbd v1.5.1PL0 Copyright (c) Steve Scherf et al.
# Submitted via: dBpowerAMP V4.0
# Normalized: r0:TDELIM( - )
#
DISCID=bc0b9e0e
DTITLE=Elite Syncopators - For Cats Only!
DYEAR=1900
DGENRE=
TTITLE0=Sidney Bechet - Halle Hallelujah
TTITLE1=Erni Burnett - My Melancholy Baby
TTITLE2=Johnny Burke - Pennies From Heaven
TTITLE3=Edgar Sampson - Blue Lou
TTITLE4=Fred Meinken - Wabash Blues
TTITLE5=Django Reihnhardt - Nuages
TTITLE6=Milton Ager - Ain't She Sweet
TTITLE7=Johnny Hodges - Way Way Back
TTITLE8=Irving Berlin - Always
TTITLE9=James P Johnson - If I Could Be With You
TTITLE10=Simon Holleday - Elite Boogie Woogie
TTITLE11=Peter de Rose - Deep Purple
TTITLE12=George and Ira Gershwin - Our Love Is Here To Stay
TTITLE13=George and Ira Gershwin - Oh Lady Be Good!
EXTD=
EXTT0=
EXTT1=
EXTT2=
EXTT3=
EXTT4=
EXTT5=
EXTT6=
EXTT7=
EXTT8=
EXTT9=
EXTT10=
EXTT11=
EXTT12=
EXTT13=
PLAYORDER=
